<?xml version="1.0" encoding="UTF-8"?>
<svg width="606px" height="154px" viewBox="0 0 606 154" version="1.1" xmlns="http://www.w3.org/2000/svg" xmlns:xlink="http://www.w3.org/1999/xlink">
    <!-- Generator: Sketch 50.2 (55047) - http://www.bohemiancoding.com/sketch -->
    <title>Logo (on light)</title>
    <desc>Created with Sketch.</desc>
    <defs></defs>
    <g id="Logo-(on-light)" stroke="none" stroke-width="1" fill="none" fill-rule="evenodd">
        <g id="Text-Draw" transform="translate(83.000000, 11.000000)" fill="#58666E">
            <path d="M53.4292756,37.1452869 C55.0561109,37.1856623 56.6742344,36.8956649 58.1857949,36.2928316 C59.4232637,35.7846972 60.5435814,35.0285599 61.4777234,34.0710066 C62.3337059,33.1799384 62.9837922,32.1119396 63.3821449,30.9423142 C63.7806789,29.7745254 63.9829296,28.5487633 63.9806773,27.3148448 C64.0112599,26.1023954 63.759798,24.8994141 63.2461148,23.8007338 C62.7908328,22.8529038 62.1086456,22.0320986 61.2600753,21.4111383 C60.3742821,20.778055 59.3776502,20.3166513 58.321825,20.0508373 C57.1489825,19.74723 55.9421296,19.5948495 54.7306303,19.5974036 C52.9775404,19.5502091 51.2356684,19.8908419 49.6295014,20.5949577 C48.3895382,21.1480693 47.277857,21.9524941 46.3647789,22.9573471 C44.9379759,24.5775612 44.1202687,26.6442759 44.0522672,28.8021072 C44.0522672,31.3262214 44.80799,33.3485356 46.3194356,34.8690499 C47.8308812,36.3895641 50.2008278,37.1483098 53.4292756,37.1452869 Z" id="Shape" fill-rule="nonzero"></path>
            <path d="M180.821468,76.7980621 C179.09842,77.7321355 177.422226,78.5845908 175.792888,79.355428 L171.090781,81.5817874 C169.627488,82.2719981 168.217907,83.0707609 166.873848,83.9713829 C166.873848,81.6256193 166.973603,79.2979931 167.173114,76.9885042 C167.386522,75.1783605 167.349904,73.3474634 167.06429,71.5473001 C166.79223,70.2293195 166.508078,69.0655064 166.211834,68.0558608 C165.915591,67.0462151 165.628416,66.0940044 165.35031,65.1992286 C165.071479,64.2979687 164.848868,63.3802676 164.683763,62.4514205 C164.509867,61.4253773 164.426417,60.3860443 164.434374,59.3453998 C164.734973,58.6571968 165.167893,58.0347785 165.708523,57.5135278 C166.452154,56.6882785 167.241129,55.7814111 168.075447,54.7929257 C168.894513,53.8148412 169.651709,52.7865691 170.342615,51.714111 C170.959153,50.8629286 171.318013,49.8524553 171.376444,48.8030668 C171.3707,48.2784357 171.334363,47.7545862 171.26762,47.2341863 C171.180763,46.5969123 170.916837,45.996795 170.505851,45.5020696 C169.946615,44.8672328 169.235087,44.3850793 168.438194,44.1009595 C167.143249,43.6614103 165.777942,43.4661467 164.411703,43.5250988 C163.440256,43.5073691 162.473278,43.6608577 161.555071,43.9785325 C160.72577,44.2784748 159.939208,44.6854748 159.215353,45.1892004 C158.514069,45.6786935 157.866584,46.2410631 157.283725,46.866905 C156.716759,47.472994 156.189671,48.115193 155.705776,48.7894638 C153.384196,51.7216682 151.499423,54.1686987 150.051458,56.130555 C148.603493,58.0924114 147.370154,59.7550016 146.351439,61.1183255 L143.712455,64.6369708 C142.968824,65.6254563 141.962201,66.8996049 140.692587,68.4594167 C139.519887,69.9070446 138.247154,71.2706877 136.883744,72.5403198 L136.112907,73.2476764 C136.112907,73.1297836 135.105528,74.0978544 134.548561,74.6533208 C133.762609,75.3516087 132.892016,76.1073315 131.936783,76.9204892 C131.634494,77.1774349 131.199197,77.5250674 130.630894,77.9633866 C130.240941,78.2581185 129.855522,78.5891251 129.465569,78.9473377 C128.522427,79.6456256 127.556613,80.3076388 126.540922,80.9741863 C125.198758,81.8296645 123.883801,82.5944559 122.596049,83.2685607 C121.427064,83.8914293 120.214777,84.4293813 118.968579,84.8782502 C118.037747,85.2364841 117.054195,85.4387099 116.057535,85.4767827 C115.527033,85.5142908 115.005262,85.3266507 114.620151,84.9598683 C114.25263,84.5406026 114.000983,84.0326198 113.890122,83.4862088 C113.721117,82.7509453 113.626928,82.0004704 113.608993,81.2462465 C113.578765,80.3907683 113.56365,79.453672 113.56365,78.4349577 C113.609482,77.4165058 113.738383,76.4034955 113.949069,75.4060207 L114.855936,70.5452117 L116.161825,63.521524 L117.522126,56.2665851 C117.87259,54.4437861 118.090807,52.5980338 118.175071,50.7437629 C118.238551,49.0569897 118.271803,47.7238946 118.274826,46.7444779 C118.277849,45.7650611 117.753377,44.9307432 116.701411,44.241524 C115.652468,43.5885795 114.234732,43.2621072 112.448203,43.2621072 C110.989006,43.2401574 109.543917,43.5502624 108.222201,44.1689746 C106.979793,44.7735528 106.270925,45.5081154 106.095597,46.3726623 L100.101204,76.0090875 C99.8528715,77.3923763 99.4117678,78.734003 98.7907808,79.9947695 C98.2962755,81.0738203 97.6181423,82.0588012 96.786604,82.9058137 C96.1256883,83.6645459 95.3291615,84.2934637 94.4378175,84.7603575 C93.6806194,85.164045 92.8381871,85.3816474 91.980207,85.3951646 C91.4699559,85.4054188 90.9707472,85.2459272 90.5609595,84.941731 C90.1481541,84.6281038 89.8117532,84.2250428 89.5770085,83.7628034 C89.3102199,83.2405099 89.1179092,82.6834194 89.005682,82.1077705 C88.8764522,81.4705496 88.8126404,80.8217963 88.8152399,80.1716087 C88.8152399,80.135334 88.9089495,79.5957479 89.0963688,78.5528504 L89.8309313,74.4719473 L91.0415992,67.7293885 L92.4019003,60.0935654 C92.8130135,57.8052368 93.2226152,55.5380684 93.6307056,53.2920602 C94.0387959,51.0460521 94.4060771,48.6745939 94.7325494,46.1776858 C94.7025254,45.3423478 94.2240507,44.5882301 93.4810724,44.2052493 C92.6467545,43.6762433 91.2683161,43.3648855 89.3457573,43.2711759 C88.2402279,43.2862349 87.1592808,43.5995529 86.2170649,44.1780433 C85.2812158,44.7685177 84.4607189,45.5244811 83.7957291,46.408937 C83.0777456,47.3526895 82.4692682,48.3749316 81.9819944,49.4560113 C81.4908847,50.536289 81.0639157,51.6445914 80.7033114,52.7751458 C80.3833919,53.766174 80.1259409,54.7762909 79.9324741,55.7995484 L79.5289182,57.9941675 C79.4059872,58.9514163 79.218568,59.9247873 78.9666604,60.9142803 C75.6918972,62.4226595 72.31989,63.7102633 68.8732267,64.7684666 C66.3750581,65.509937 63.8321915,66.0915098 61.2600753,66.5096519 C59.0110442,66.8542615 56.9448981,67.090047 55.0616369,67.2170085 C53.1783757,67.3439699 51.2134964,67.5706867 49.1669991,67.897159 L52.2140734,57.9216181 C52.3954468,57.3774976 52.613095,56.6520038 52.8670179,55.7451364 C53.169307,54.7657197 53.4595045,53.7318909 53.7376105,52.64365 C54.0157165,51.5554092 54.2605707,50.5397178 54.4721731,49.5965757 C54.6355157,48.9180674 54.7356986,48.2258952 54.7714393,47.5289182 C54.7597336,46.6601103 54.4634709,45.8191065 53.9280527,45.1347883 C53.3657949,44.3730198 52.4498589,43.9921355 51.1802446,43.9921355 C50.3519724,43.9921355 49.5146315,44.0193415 48.668222,44.0737535 C47.8444803,44.1237529 47.0283147,44.2605405 46.2332832,44.4818438 C45.4612496,44.6985625 44.7336216,45.0500959 44.0840075,45.520207 C43.3808598,46.0472833 42.7981036,46.7181486 42.3745626,47.4881091 C41.6808349,48.8149417 41.1174503,50.2059397 40.6923236,51.6415616 C40.1240201,53.4250674 39.5632738,55.4730762 39.0100847,57.785588 C38.4568956,60.0980997 37.9218438,62.7839385 37.4049294,65.8431044 C36.8880151,68.9022703 36.4073754,71.7634368 35.9630103,74.426604 L34.6616557,82.2301976 C34.2384509,84.7694262 33.8137347,87.0713578 33.3875071,89.1359925 C32.9612794,91.2006272 32.6317843,92.9614613 32.3990216,94.4184948 C32.1954739,95.4217463 32.0666474,96.4387181 32.013603,97.4610348 C31.9837066,102.131204 32.2289857,106.799078 32.7481656,111.440395 C33.1018523,114.987069 33.8985439,118.475451 35.1196237,121.824026 C36.2260019,124.65043 37.667921,126.807262 39.445381,128.294525 C41.2653746,129.794533 43.567442,130.583905 45.9249483,130.51635 C48.4575499,130.594591 50.947316,129.850048 53.0211853,128.39428 C54.9811438,126.956696 56.6273895,125.134563 57.8593227,123.039229 C59.178886,120.806556 60.2031303,118.41208 60.906397,115.915786 C61.6108204,113.497964 62.1561082,111.036595 62.5387582,108.547488 C62.8833678,106.225908 63.101016,104.205105 63.1917027,102.48508 C63.2823895,100.765055 63.3277328,99.6677454 63.3277328,99.1931515 C63.3287137,96.5137119 63.0460092,93.8416981 62.4843462,91.2217874 L60.92,83.9124365 C60.2514739,81.4221634 59.4569422,78.9674388 58.5394732,76.5577422 C60.7824999,76.5153262 63.0187426,76.2970083 65.2276199,75.9047977 C67.4404722,75.5182426 69.6283743,75.0004138 71.7797366,74.3540546 C73.60828,73.8126182 75.3900372,73.1241775 77.1075823,72.2954657 C76.9110944,73.1086234 76.7115836,73.8643462 76.5090499,74.5626341 C75.8228536,77.0988398 75.4601066,80.7414236 75.420809,85.4903857 C75.3754718,87.4263408 75.6122288,89.3585838 76.1236312,91.2263217 C76.4991696,92.5872027 77.1539137,93.8549972 78.04619,94.9490122 C78.7914687,95.8441022 79.7506386,96.536576 80.8348071,96.9622578 C81.9086373,97.3660164 83.0475513,97.5688998 84.1947507,97.5607902 C85.7355977,97.5372288 87.2588981,97.2298018 88.6882785,96.6539229 C90.3051453,96.0343955 91.8425205,95.2246098 93.2679586,94.2416557 C94.8483245,93.1427325 96.3332828,91.9125985 97.7070743,90.5643086 C99.1922916,89.113759 100.575534,87.562346 101.846924,85.9211477 C102.167369,87.4402685 102.586937,88.9367778 103.102935,90.4010724 C103.526735,91.6308911 104.120437,92.7954013 104.866792,93.8607714 C105.51636,94.7916988 106.365201,95.5661886 107.351609,96.1279398 C108.428037,96.6872714 109.630705,96.959043 110.843048,96.9169144 C112.303581,96.9006322 113.757079,96.7119057 115.17334,96.3546566 C116.798706,95.9583891 118.39664,95.4570469 119.957065,94.8537912 C121.615708,94.2153801 123.239721,93.4904016 124.822408,92.6818438 C126.436632,91.8596174 127.960169,91.0011163 129.39302,90.1063405 C130.639962,89.3264346 131.78715,88.5465287 132.84365,87.7666228 C133.170122,87.7258137 133.501129,87.675936 133.83667,87.6033866 C133.960564,89.3035995 134.502608,90.9468653 135.414619,92.3871119 C136.283245,93.7046289 137.447807,94.8008708 138.815372,95.5883537 C140.327627,96.4537087 141.971027,97.0663462 143.680715,97.4020884 C145.649852,97.794357 147.653715,97.9857798 149.661505,97.9734149 C152.82591,97.9386474 155.979661,97.6000404 159.079323,96.9622578 C162.42524,96.3076508 165.721981,95.4228636 168.94604,94.3142051 C172.134881,93.2250696 175.249061,91.928504 178.268636,90.4328128 C181.005925,89.0962353 186.559548,85.5667075 189.01416,83.7628034 L186.287476,73.2476764 C184.643746,74.5108885 182.636998,75.7973605 180.821468,76.7980621 Z M52.7491251,105.300903 C52.6731653,107.391547 52.4550131,109.474597 52.0961806,111.535616 C51.8348435,113.223434 51.3084129,114.859348 50.5363688,116.382822 C49.8290122,117.688711 48.8768015,118.341656 47.6797366,118.341656 C47.2929363,118.29606 46.9355429,118.112534 46.6731138,117.824741 C46.1854262,117.321925 45.7976715,116.731061 45.530461,116.083556 C45.0849966,115.055681 44.765279,113.977775 44.5782502,112.873246 C44.2977447,111.225959 44.1702399,109.556254 44.1973659,107.885475 C44.1863923,101.963877 44.5589879,96.0477863 45.3128128,90.1743556 C46.056444,84.4580684 46.7955409,78.7765444 47.5301035,73.1297836 C48.5730009,76.4942615 49.5191659,79.7665412 50.3685983,82.9466228 L51.239191,87.2406397 L52.1052493,91.5029163 C52.3823569,92.8512507 52.5866976,94.2135218 52.7173848,95.5838194 C52.8413233,96.9078457 52.9017811,98.0973534 52.8987582,99.1523424 C52.8896896,101.017466 52.8398119,103.066987 52.7491251,105.300903 Z M153.230028,86.6375729 C152.66519,87.4433984 151.907596,88.0949916 151.026341,88.5329257 C149.929999,89.0471255 148.726923,89.2927147 147.516764,89.2493509 C146.426272,89.2683342 145.352132,88.982525 144.415278,88.4241016 C143.553369,87.9088047 142.750532,87.3005953 142.021148,86.6103669 C141.331929,85.9513766 140.72735,85.3467984 140.207413,84.7966322 C139.85614,84.3401732 139.336993,84.0430515 138.765494,83.9713829 L153.828561,68.1374788 C154.009934,68.7239197 154.218514,69.4297648 154.454299,70.2550141 C154.704703,71.411463 154.741584,72.6039467 154.563123,73.7736595 C154.401897,75.0417499 154.383645,76.3239396 154.508711,77.5961054 C154.634105,78.5993848 154.697706,79.6094238 154.699153,80.620508 C154.702693,81.7185707 154.593294,82.8140863 154.372681,83.8897648 C154.180354,84.873191 153.791727,85.8077466 153.230028,86.6375729 Z" id="Shape" fill-rule="nonzero"></path>
            <path d="M197.788956,69.3028034 C197.82523,68.3233866 197.861505,67.3349012 197.89778,66.3373471 C197.934055,65.339793 197.970329,64.369445 198.006604,63.4263029 C198.115428,61.2498213 198.242389,59.0385764 198.387488,56.7925682 C199.294356,55.6680527 200.285864,54.4075071 201.362013,53.0109313 C202.438162,51.6143556 203.496174,50.1905738 204.536049,48.7395861 L225.443876,48.7395861 C226.393913,48.700151 227.274641,48.2314304 227.838006,47.4654374 C228.592036,46.5315817 228.979028,45.3544804 228.926246,44.1553716 C228.957963,43.1636063 228.791476,42.1754809 228.436538,41.2488617 C228.211004,40.558192 227.584101,40.0772061 226.858589,40.0381938 C226.254011,40.0019191 225.474105,39.9656444 224.518871,39.9293697 L221.480865,39.8296143 C220.392625,39.7933396 219.268109,39.7600878 218.107319,39.7298589 L214.869802,39.6437065 C213.872248,39.6134776 212.992587,39.5620884 212.230818,39.489539 C211.687676,39.4019469 211.13243,39.4250822 210.598457,39.5575541 C211.904346,37.5352399 213.146754,35.4962998 214.325682,33.4407338 C215.462525,31.4631929 216.488859,29.424147 217.399962,27.3329821 C218.237935,25.4234856 218.929156,23.4528995 219.46762,21.4383443 C219.956744,19.6437482 220.212772,17.7936437 220.229389,15.9336595 C220.236402,13.891737 219.989657,11.8568556 219.494826,9.87578551 C219.065346,8.0841771 218.358532,6.37068719 217.399962,4.79732832 C216.560071,3.41896367 215.438227,2.23376408 214.108034,1.319492 C212.850683,0.458913278 211.360309,0.00325735428 209.836689,0.0136030103 C207.418376,0.0136030103 205.10133,1.08975227 202.88555,3.2420508 C200.412885,5.76076779 198.351781,8.65274017 196.777799,11.8119473 C194.762882,15.7341215 193.073454,19.8151358 191.726548,24.0138476 C190.204759,28.6630752 188.963145,33.3993781 188.008391,38.1972531 C187.347211,38.2849614 186.679418,38.3122803 186.013283,38.2788711 C185.045958,38.2607338 183.953183,38.2335278 182.734958,38.1972531 C181.516733,38.1609784 180.241072,38.1519097 178.907977,38.170047 C177.682755,38.1814504 176.459315,38.2662433 175.244233,38.4239699 C174.312031,38.5309435 173.397579,38.7580325 172.523631,39.0995861 C171.813252,39.4018752 171.458062,39.838683 171.458062,40.4100094 C171.458062,40.7727563 171.476199,41.2065412 171.512474,41.7113641 C171.55011,42.2146998 171.680794,42.7066861 171.897893,43.1623518 C172.144202,43.6476083 172.511138,44.0613868 172.963462,44.3639511 C173.573424,44.7549009 174.268719,44.9928878 174.99031,45.0577046 C176.961235,45.2995359 178.472681,45.5020696 179.524647,45.6653057 C180.576613,45.8285419 181.433603,45.9796864 182.095616,46.1187394 C182.769721,46.2608153 183.409062,46.4028912 184.013641,46.5449671 C184.618219,46.687043 185.467651,46.8381875 186.561938,46.9984008 C186.238489,49.4167137 185.987589,51.8637441 185.809238,54.339492 C185.630887,56.8152399 185.541712,59.1353089 185.541712,61.299699 C185.492796,66.3381742 185.835414,71.3728349 186.566472,76.3582314 C187.120038,80.2792865 188.187212,84.1104413 189.740508,87.7530198 C191.146152,90.8907808 192.894895,93.2924679 194.986736,94.9580809 C197.038607,96.6139258 199.60529,97.4994317 202.241675,97.4610348 C203.768986,97.4311401 205.283373,97.1744125 206.735202,96.6992662 C208.675396,96.0816502 210.568171,95.3239342 212.398589,94.4320978 C214.514613,93.4164064 216.932926,92.1467921 219.653528,90.6232549 C222.37413,89.0997178 262.323107,58.8209282 265.811523,56.7925682 L266.577148,43.1623518 C266.387259,43.3709809 265.699582,43.2807216 263.871582,44.1553716 C262.185653,44.9620445 259.46534,46.6512862 256.745605,48.7378318 C244.809521,57.895045 226.208959,74.1216117 225.339586,74.8619003 C223.997422,76.0045532 222.590267,77.092794 221.118119,78.1266228 C219.645971,79.1604516 218.158708,80.1126623 216.656331,80.9832549 C215.144886,81.8538476 213.712035,82.6095704 212.35778,83.2504233 C211.139639,83.8290889 209.885579,84.3288954 208.603349,84.7467545 C207.683414,85.0688732 206.720652,85.2522563 205.746717,85.2908749 C204.587569,85.3121963 203.434509,85.1184823 202.345964,84.7195484 C201.348859,84.3419468 200.47177,83.7029248 199.806736,82.869539 C199.055074,81.8948223 198.515996,80.773417 198.224252,79.5776105 C197.829059,77.9592073 197.64615,76.2962577 197.680132,74.6306491 C197.680132,73.8688805 197.6892,73.0345626 197.707338,72.1276952 C197.725475,71.2208278 197.752681,70.2791972 197.788956,69.3028034 Z M200.509558,29.5276011 C201.292487,26.4321606 202.129828,23.5966886 203.02158,21.0211853 C203.746567,18.8218019 204.678779,16.6962364 205.805663,14.6731138 C206.769966,13.0165695 207.725199,12.1882973 208.671364,12.1882973 C209.243008,12.1599407 209.80826,12.3191665 210.281054,12.641731 C210.655952,12.9201978 210.948865,13.2945628 211.128975,13.7254374 C211.310484,14.1599041 211.429559,14.6178838 211.482653,15.0857385 C211.534183,15.5267619 211.56143,15.9702846 211.564271,16.4142992 C211.498588,17.92234 211.192442,19.4102088 210.657404,20.8216745 C210.052825,22.614249 209.269897,24.5398307 208.308617,26.5984196 C207.347338,28.6570085 206.289326,30.7518721 205.134581,32.8830103 C203.952631,35.0141486 202.814512,36.9926309 201.720226,38.8184572 C201.136808,38.7640452 200.573039,38.7171903 200.028918,38.6778928 C199.484798,38.6385952 198.939166,38.5917404 198.392023,38.5373283 C199.008692,35.6172154 199.708492,32.6094387 200.491421,29.5139981 L200.509558,29.5276011 Z" id="Shape" fill-rule="nonzero"></path>
            <path d="M321.181863,77.9905927 C319.871231,78.0192122 318.590568,77.5965934 317.554393,76.7935278 C316.585865,76.044707 315.725294,75.1658261 314.997027,74.1817498 C314.17284,73.0077693 313.513741,71.7261878 313.038194,70.3729069 C313.509765,69.4297648 314.053885,68.4140734 314.670555,67.3258325 C315.178401,66.3826905 315.858551,64.9317027 316.711007,62.9728692 C317.563462,61.0140357 318.388711,59.3106366 319.186754,57.8626717 L319.785287,56.6928128 C320.148034,55.9854563 320.528918,55.1330009 320.92794,54.1354468 C321.326961,53.1378928 321.698777,52.0587206 322.043387,50.8979304 C322.371953,49.8402474 322.546055,48.7406583 322.560301,47.6332079 C322.560301,46.2910442 321.925494,45.1937347 320.65588,44.3412794 C319.386265,43.4888241 317.723675,43.0625964 315.668109,43.0625964 C313.875979,43.0160327 312.100635,43.4181739 310.5035,44.2324553 C309.052512,45.0123612 308.10937,45.9101599 307.674073,46.9258514 L294.130009,78.1492944 L293.313829,78.1946378 L298.337874,46.6311195 C298.361839,45.6269097 297.881915,44.6772724 297.059191,44.1009595 C296.206736,43.4661524 294.982465,43.1487488 293.386378,43.1487488 C291.714806,43.1098527 290.053383,43.4186674 288.507432,44.0556162 C287.105259,44.6837541 285.851989,45.6016859 284.830085,46.7490122 C283.625475,48.1197603 282.608433,49.6445615 281.805682,51.283349 C280.880677,53.0970837 279.917886,55.2131076 278.91731,57.6314205 C277.916733,60.0497335 276.734782,63.1602885 275.371458,66.9630856 C274.008134,70.7537912 272.525406,74.4991533 270.923274,78.1991722 L270.215917,78.2445155 L274.614224,46.6175165 C274.626429,45.5966008 274.101244,44.644379 273.231251,44.1100282 C272.324384,43.4812669 271.000357,43.1668862 269.259172,43.1668862 L267.844459,43.0580621 C266.53289,43.0213968 265.237668,43.3562054 264.108166,44.0238758 C263.062029,44.6687449 262.140477,45.4966065 261.387563,46.4678833 C260.613748,47.4697324 259.980628,48.572734 259.505814,49.7462088 C259.040522,50.8745952 258.648248,52.0317256 258.331421,53.2104421 C258.218062,53.6321355 258.13191,53.9314017 258.063895,54.1173095 C258.036689,56.7653622 258.023086,59.4134149 258.023086,62.0614675 L258.023086,72.757968 C258.023086,80.9197742 258.66545,87.0834494 259.950179,91.2489934 C261.234907,95.4145375 263.248153,97.4988209 265.989915,97.5018438 C267.649483,97.5018438 269.345325,96.8398307 271.077441,95.5158043 C273.036907,93.9441004 274.735579,92.0725006 276.110555,89.9703104 C277.899213,87.2926917 279.43106,84.4521717 280.685701,81.4865663 C282.192924,77.9680026 283.432798,74.3408393 284.394788,70.6358984 L285.977272,70.9079586 C285.977272,72.8667921 285.995409,74.8785262 286.031684,76.9431609 C286.067959,79.0077955 286.131439,81.0195296 286.222126,82.9783631 C286.312813,84.9371966 286.439774,86.7947632 286.60301,88.551063 C286.766246,90.3073628 286.974826,91.8490373 287.228749,93.1760865 C287.407832,94.2707611 287.727896,95.3376416 288.18096,96.3501223 C288.561844,97.1300282 289.006209,97.5199812 289.514055,97.5199812 C291.080337,97.4823885 292.598286,96.9700809 293.867018,96.0508561 C295.4916,94.9079326 296.93985,93.5330124 298.165569,91.969953 C299.721441,90.0182237 301.105067,87.9352001 302.300884,85.7443086 C303.727859,83.158493 305.017403,80.4991865 306.164139,77.7774788 C306.143298,79.752211 306.542046,81.7088573 307.333998,83.5179492 C308.016117,85.0192157 309.041175,86.3393655 310.32666,87.3721355 C311.616421,88.3821181 313.097073,89.1209016 314.679624,89.5440828 C316.393917,89.9862504 318.160293,90.1937003 319.930386,90.1607526 C322.45221,90.1298294 324.947962,89.6460376 327.298683,88.7324365 C329.913792,87.7489201 332.40494,86.4630188 334.721392,84.9009219 L336.557617,70.9079586 C334.852707,72.0687488 331.353892,73.9822389 329.733622,74.8891063 C328.31297,75.7068428 326.837276,76.4249935 325.317178,77.0383819 C324.012192,77.6169441 322.60846,77.940172 321.181863,77.9905927 Z" id="Shape" fill-rule="nonzero"></path>
            <path d="M403.081054,37.1452869 C404.709408,37.1862779 406.329136,36.8962695 407.842107,36.2928316 C409.079576,35.7846972 410.199894,35.0285599 411.134036,34.0710066 C411.990018,33.1799384 412.640104,32.1119396 413.038457,30.9423142 C413.436991,29.7745254 413.639242,28.5487633 413.63699,27.3148448 C413.667572,26.1023954 413.41611,24.8994141 412.902427,23.8007338 C412.447145,22.8529038 411.764958,22.0320986 410.916388,21.4111383 C410.03054,20.778148 409.033927,20.3167528 407.978137,20.0508373 C406.805295,19.74723 405.598442,19.5948495 404.386943,19.5974036 C402.64264,19.5414583 400.907362,19.8696286 399.303951,20.558683 C398.063988,21.1117946 396.952307,21.9162195 396.039229,22.9210724 C394.612426,24.5412865 393.794718,26.6080012 393.726717,28.7658325 C393.726717,31.2899467 394.48244,33.3122609 395.993885,34.8327752 C397.505331,36.3532894 399.86772,37.1241267 403.081054,37.1452869 Z" id="Shape" fill-rule="nonzero"></path>
            <path d="M409.116256,82.3662277 C407.588853,83.5839558 405.971526,84.6844045 404.278119,85.6581562 C402.9699,86.4783371 401.472094,86.9468896 399.92969,87.0184572 C398.942913,87.108192 398.022226,86.5131139 397.698796,85.5765381 C397.292005,84.322916 397.107851,83.0077502 397.154675,81.6906115 C397.182785,79.8123821 397.444771,77.9449701 397.934581,76.1315146 C398.457542,74.0940859 398.889815,72.0415428 399.231402,69.9738852 C399.693126,67.441215 400.332536,64.944183 401.144892,62.5012982 C402.078965,59.5721167 402.78481,57.1764754 403.262427,55.3143744 L404.536576,50.326604 C404.853249,49.2245583 405.04042,48.0893637 405.094299,46.9439887 C405.137505,46.1118108 404.848875,45.296471 404.291722,44.6768203 C403.75667,44.1145626 402.740978,43.8334337 401.244647,43.8334337 C400.319517,43.8451763 399.397725,43.9469227 398.492305,44.1372342 C397.481078,44.3378827 396.495514,44.6511946 395.554055,45.0713076 C394.629986,45.4800653 393.773718,46.0274656 393.014826,46.6946002 C392.253605,47.3296239 391.726845,48.2011721 391.518495,49.1703481 C391.195045,50.4762371 390.345613,53.2950831 388.970198,57.6268862 C388.287024,60.0724051 387.709652,62.117391 387.238081,63.7618438 C386.127168,64.6006961 384.998119,65.3760677 383.855466,66.0834243 C382.330486,67.0289665 380.730551,67.8478902 379.07174,68.5319661 C377.4755,69.2269571 375.756774,69.5969071 374.015955,69.620207 C373.446592,69.6224847 372.882461,69.5115081 372.356388,69.2937347 C371.796544,69.0500923 371.309203,68.6658427 370.941675,68.1782879 C370.474463,67.5512778 370.13267,66.8399794 369.935052,66.0834243 C369.656852,65.0181976 369.528655,63.9193615 369.554167,62.8187018 C369.571872,61.8609463 369.662824,60.9059489 369.826228,59.9620696 C370.007601,58.8194167 370.297799,57.3593603 370.69682,55.5819003 C371.095842,53.8044403 371.38604,52.3625212 371.567413,51.256143 C371.723326,50.4027382 371.814274,49.5387352 371.839473,48.671571 C371.845767,47.9307619 371.691055,47.1974276 371.38604,46.5222954 C371.112683,45.9112896 370.71414,45.3644524 370.216181,44.9171402 C369.714484,44.4750784 369.132644,44.1333626 368.502201,43.9105174 C367.856837,43.6762813 367.175514,43.5565893 366.488956,43.5568391 C364.606056,43.5238193 362.760707,44.0855159 361.215522,45.1619944 C359.662055,46.2612044 358.285842,47.5915428 357.134619,49.1068674 C355.779092,50.9399834 354.629513,52.9167723 353.70666,55.0015052 C352.61842,57.3593603 351.711552,59.2622703 350.986058,60.7102352 L350.387526,60.7102352 C350.321659,58.5520447 350.376156,56.3918605 350.550762,54.2397366 C350.732135,51.7760803 350.822822,49.8731703 350.822822,48.5310066 C350.822822,47.4064911 350.795616,46.5177611 350.741204,45.8648166 C350.728428,45.3341688 350.571699,44.8169658 350.28777,44.3684854 C349.999847,44.0042986 349.579028,43.7694231 349.117912,43.7155409 C348.388166,43.6113668 347.651242,43.5658777 346.914224,43.5795108 C346.213467,43.570552 345.513073,43.6160321 344.81936,43.7155409 C344.311968,43.7847261 343.82763,43.9710101 343.404647,44.2596613 C342.997626,44.5601299 342.655281,44.9394861 342.398024,45.3751082 C342.04569,45.9796295 341.754071,46.6175477 341.527432,47.2795296 C340.962752,48.7726735 340.490292,50.299083 340.112719,51.8501411 C339.641148,53.7001505 339.07889,56.0111508 338.425945,58.7831421 C337.773001,61.5551333 337.245506,64.1548197 336.843462,66.5822013 C336.426303,69.0307432 336.063556,71.4324302 335.755221,73.7872625 C335.446886,76.1420947 335.202032,78.3805456 335.020659,80.5026152 C334.839285,82.6186391 334.748598,84.4762057 334.748598,86.0753151 C334.745989,87.4845864 334.827753,88.8927499 334.993452,90.2922484 C335.130537,91.544747 335.460931,92.7684297 335.972869,93.9197178 C336.900427,96.199243 339.185369,97.6268748 341.64079,97.4610348 C342.263449,97.4712707 342.881331,97.3507837 343.454525,97.1073565 C344.05404,96.8286983 344.57688,96.4085591 344.978062,95.8830856 C345.523387,95.1812783 345.988764,94.4208582 346.365569,93.6159172 C346.908875,92.4727966 347.390212,91.3012406 347.807488,90.1063405 L357.542709,62.9683349 L358.417836,62.9683349 C358.720125,65.2536406 359.10101,67.5102289 359.560489,69.7380997 C359.987689,71.8452355 360.720952,73.8785124 361.736971,75.773302 C362.680722,77.5303886 364.04548,79.0260132 365.70905,80.1262653 C367.377686,81.2326435 369.570793,81.7858325 372.288373,81.7858325 C373.810411,81.7863859 375.323806,81.5570837 376.777366,81.105682 C378.234759,80.6573942 379.65399,80.0933405 381.021505,79.4189087 C382.115792,78.8778112 383.157178,78.3079962 384.145663,77.7094638 L384.009633,78.5211101 C383.532116,81.1661683 383.271282,83.8457883 383.229727,86.5332832 C383.215039,88.0452696 383.388679,89.5532014 383.746642,91.0222766 C384.0445,92.2905377 384.631048,93.4729437 385.460621,94.4774412 C386.30787,95.4565247 387.382076,96.2131397 388.589313,96.6811289 C390.105657,97.2427933 391.715876,97.5075712 393.33223,97.4610348 C395.598853,97.4331913 397.846857,97.0475567 399.99317,96.3183819 C402.356542,95.5457159 404.656322,94.5906323 406.871759,93.4617498 C409.050837,92.3595863 411.149404,91.104992 413.151816,89.7073189 C414.854104,88.5341895 420.842447,83.1674281 422.380371,81.7858325 L420.375,72.2275391 C419.165844,73.2069558 415.429564,76.9930386 413.881844,78.371477 C412.334124,79.7499153 410.745594,81.0814989 409.116256,82.3662277 Z" id="Shape" fill-rule="nonzero"></path>
            <path d="M506.932617,73.09375 C504.646034,73.6125209 503.209994,75.0600591 501.40332,76.3809031 C499.338414,77.9104634 497.209137,79.559317 494.964854,80.8109501 C492.71213,82.0673257 490.35631,83.1291893 487.923029,83.9849859 C485.719249,84.797569 483.393056,85.2284592 481.04444,85.2591345 C480.392978,85.2633175 479.743235,85.1918001 479.108278,85.0460207 C478.496773,84.8993132 477.915327,84.6477113 477.389765,84.3023895 C476.780986,83.8910061 476.238232,83.3895316 475.780075,82.815127 C475.176197,82.0644649 474.637669,81.2634991 474.170386,80.4209972 C477.241703,79.6060374 480.198544,78.4086767 482.971533,76.8570085 C485.529221,75.4436274 487.884199,73.6911214 489.972549,71.6470555 C492.025888,69.5738058 493.761633,67.2085477 495.123556,64.6279022 C496.595704,61.9073001 497.331778,59.4436438 497.331778,57.2369332 C497.360452,55.3165709 496.989876,53.411192 496.243537,51.6415616 C495.550461,50.0227822 494.521073,48.5698916 493.223669,47.379285 C491.900806,46.189854 490.361354,45.2661827 488.689332,44.658683 C486.875913,43.9938539 484.957316,43.6620548 483.025945,43.6792662 C480.692553,43.6460888 478.377318,44.0937008 476.22444,44.9942239 C474.201589,45.8609202 472.336774,47.0576501 470.706152,48.5355409 C469.043746,50.0471805 467.597322,51.7804487 466.407601,53.6865475 C465.185548,55.6269556 464.161684,57.685316 463.351458,59.8305738 C462.5383,61.9768266 461.75386,64.43746 460.998137,67.2124741 C460.326534,69.4905495 459.945652,71.8443983 459.864553,74.2180245 C459.619699,74.4356726 459.379379,74.6714581 459.125456,74.8664346 C457.783293,76.0090875 456.377648,77.0973283 454.908523,78.1311571 C453.439398,79.1649859 451.952135,80.1171966 450.446736,80.9877893 C448.93529,81.8583819 447.50244,82.6141047 446.148184,83.2549577 C444.930044,83.8336233 443.675984,84.3334297 442.393754,84.7512888 C441.473801,85.0733423 440.511049,85.2567236 439.537121,85.2954092 C438.391651,85.3117068 437.252883,85.11807 436.177178,84.7240828 C435.180072,84.3464811 434.302983,83.7074592 433.637949,82.8740734 C432.886402,81.8992859 432.347337,80.7779059 432.055466,79.5821449 C431.660272,77.9637416 431.477363,76.300792 431.511345,74.6351834 C431.511345,73.8734149 431.520414,73.0390969 431.538551,72.1322295 C431.556689,71.2253622 431.583895,70.2822201 431.620169,69.3028034 C431.656444,68.3233866 431.692719,67.3349012 431.728993,66.3373471 C431.765268,65.339793 431.801543,64.369445 431.837817,63.4263029 C431.946642,61.2498213 432.073603,59.0385764 432.218702,56.7925682 C433.125569,55.6680527 434.117077,54.4075071 435.193227,53.0109313 C436.269376,51.6143556 437.327388,50.1905738 438.367262,48.7395861 L459.275089,48.7395861 C460.225126,48.700151 461.105854,48.2314304 461.669219,47.4654374 C462.423249,46.5315817 462.810241,45.3544804 462.75746,44.1553716 C462.789176,43.1636063 462.62269,42.1754809 462.267752,41.2488617 C462.042218,40.558192 461.415315,40.0772061 460.689802,40.0381938 C460.085224,40.0019191 459.305318,39.9656444 458.350085,39.9293697 L455.30301,39.8205456 C454.21477,39.7842709 453.090254,39.7510191 451.929464,39.7207902 L448.691947,39.6346378 C447.694393,39.6044089 446.814732,39.5530198 446.052963,39.4804704 C445.509821,39.3928783 444.954575,39.4160135 444.420602,39.5484854 C445.726491,37.5261712 446.968899,35.4872311 448.147827,33.4316651 C449.284161,31.4600716 450.310491,29.4270905 451.222107,27.3420508 C452.060178,25.432593 452.751402,23.4619993 453.289765,21.447413 C453.778988,19.6528371 454.035017,17.8027198 454.051533,15.9427281 C454.058453,13.9008112 453.81171,11.8659413 453.316971,9.88485419 C452.887491,8.09324577 452.180677,6.37975586 451.222107,4.80639699 C450.382325,3.42794884 449.260461,2.24272823 447.930179,1.32856068 C446.672828,0.467981951 445.182454,0.0123260278 443.658833,0.0226716839 C441.240521,0.0226716839 438.923474,1.09882095 436.707695,3.25111947 C434.235261,5.77003035 432.174184,8.6619642 430.599944,11.821016 C428.58512,15.7432331 426.895695,19.8242396 425.548692,24.0229163 C424.026904,28.6721439 422.78529,33.4084467 421.830536,38.2063217 C421.169356,38.2940301 420.501563,38.3213489 419.835428,38.2879398 C418.868103,38.2698024 417.775328,38.2425964 416.557103,38.2063217 C415.338877,38.170047 414.063217,38.1609784 412.730122,38.1791157 C411.504899,38.1905082 410.281459,38.2753011 409.066378,38.4330386 C408.134176,38.5400122 407.219724,38.7671012 406.345776,39.1086548 C405.635397,39.4109439 405.280207,39.8477516 405.280207,40.4190781 C405.280207,40.781825 405.298344,41.2156099 405.334619,41.7204327 C405.372255,42.2237684 405.502939,42.7157548 405.720038,43.1714205 C405.95747,43.6567794 406.314875,44.0734918 406.758401,44.3820884 C407.368363,44.7730382 408.063658,45.0110251 408.785249,45.075842 C410.756174,45.3176733 412.26762,45.520207 413.319586,45.6834431 C414.371552,45.8466792 415.228542,45.9978238 415.890555,46.1368768 C416.56466,46.2789526 417.204001,46.4210285 417.808579,46.5631044 C418.413158,46.7051803 419.26259,46.8563249 420.356877,47.0165381 C420.033427,49.4348511 419.782527,51.8818815 419.604177,54.3576294 C419.425826,56.8333772 419.336651,59.1534462 419.336651,61.3178363 C419.298007,66.3586481 419.651238,71.3948384 420.393151,76.3809031 C420.946717,80.3019582 422.013891,84.133113 423.567187,87.7756914 C424.972832,90.9134525 426.721574,93.3151395 428.813415,94.9807526 C430.865286,96.6365975 433.431969,97.5221034 436.068354,97.4837065 C437.595665,97.4538118 439.110052,97.1970842 440.561881,96.7219379 C442.502081,96.1043369 444.394857,95.3466205 446.225268,94.4547695 C448.341292,93.4390781 450.759605,92.1694638 453.480207,90.6459266 C456.016413,89.2281907 458.888159,87.5882722 462.095447,85.7261712 C462.834863,87.4550498 463.801649,89.0775431 464.970216,90.5507056 C466.683811,92.6895088 468.852359,94.4197005 471.318288,95.6155597 C474.095131,96.9222663 477.137435,97.5664276 480.205588,97.4973095 C482.377083,97.4979612 484.541155,97.2438121 486.653415,96.7400753 C488.754538,96.2415131 490.80984,95.5665248 492.797441,94.7222954 C494.747643,93.8950891 496.6371,92.9314207 498.451759,91.8384572 C500.247357,90.7562622 501.92355,89.6544183 503.480339,88.5329257 C507.145751,85.8521506 511.76416,82.815127 513.650856,79.5141298 C514.454224,78.1085436 512.930093,75.4019523 511.76416,74.2180245 C510.579795,73.0153798 510.050428,72.3863935 506.932617,73.09375 Z M434.304497,29.5139981 C435.087426,26.4185575 435.924766,23.5830856 436.816519,21.0075823 C437.541506,18.8081988 438.473718,16.6826334 439.600602,14.6595108 C440.564904,13.0029664 441.520138,12.1746943 442.466303,12.1746943 C443.532398,12.077114 444.534488,12.6964867 444.923913,13.6936971 C445.105423,14.1281637 445.224498,14.5861434 445.277592,15.0539981 C445.329232,15.4950117 445.356479,15.9385405 445.35921,16.3825588 C445.293527,17.8905997 444.987381,19.3784685 444.452342,20.7899341 C443.847764,22.5825086 443.064835,24.5080903 442.103556,26.5666792 C441.142277,28.6252681 440.084265,30.7201317 438.92952,32.85127 C437.74757,34.9824083 436.609451,36.9608906 435.515165,38.7867168 C434.931747,38.7323048 434.367977,38.68545 433.823857,38.6461524 C433.279737,38.6068548 432.734105,38.56 432.186961,38.505588 C432.815723,35.6066353 433.521568,32.6094387 434.304497,29.5139981 Z M473.01413,68.7360113 C473.166338,67.2982546 473.506284,65.8866402 474.025287,64.5372154 C474.629865,62.8353277 475.15736,61.408523 475.60777,60.2568015 C476.045348,59.1395019 476.657547,58.0987633 477.421505,57.1734525 C479.085094,55.1459768 481.602382,54.0148751 484.22301,54.1173095 C485.096626,54.1173095 485.834211,54.631201 486.435767,55.658984 C487.082497,56.8669978 487.395532,58.2255698 487.342634,59.5947883 C487.342634,60.7283725 486.706315,62.1642458 485.433678,63.9024083 C484.3309,65.4596362 483.016967,66.8559766 481.529614,68.0513264 C480.207139,69.0756064 478.757729,69.9245245 477.21746,70.576952 C475.869467,71.188631 474.412315,71.5232361 472.932512,71.5609031 C472.914374,70.7779743 472.94158,69.8363437 473.01413,68.7360113 Z" id="Shape" fill-rule="nonzero"></path>
            <path d="M5.35742188,98 C1.5703648,97.4186185 0.291992187,95.4462891 0.291992187,92.956543 C0.291992187,90.4667969 0.371508385,89.8228054 1.73242188,88.7401674 C3.09333536,87.6575294 5.54143608,88.3858804 7.43652344,88.7401674 C9.33161079,89.0944544 17.9467773,91.4001258 25.9667969,87.2993164 C31.3134766,84.5654435 34.4382586,81.7964005 35.3411429,78.9921875 L33.3808594,94.1679688 C23.1247093,98.0162209 13.7835635,99.2935647 5.35742188,98 Z" id="Path-4"></path>
        </g>
        <g id="content-icon" transform="translate(12.000000, 33.000000)" fill="#58666E" fill-rule="nonzero">
            <path d="M8.31578947,0 C3.74210526,0 0,3.72272727 0,8.27272727 C0,30.1039299 0,49.4069602 0,66.1818182 C0.564694479,70.1142102 7.73665521,70.2147653 8.31578947,66.1818182 C8.31578947,49.6927675 8.31578947,30.3897372 8.31578947,8.27272727 C24.2849507,8.27272727 40.9165296,8.27272727 58.2105263,8.27272727 C61.4517111,7.73532715 60.9946289,1.0447451e-14 58.2105263,0 C42.054876,0 25.423297,0 8.31578947,0 Z M70.6842105,16.5454545 L24.9473684,16.5454545 C20.3736842,16.5454545 16.6315789,20.2681818 16.6315789,24.8181818 L16.6315789,82.7272727 C16.6315789,87.2772727 20.3736842,91 24.9473684,91 L70.6842105,91 C75.2578947,91 79,87.2772727 79,82.7272727 L79,24.8181818 C79,20.2681818 75.2578947,16.5454545 70.6842105,16.5454545 Z M70.6842105,82.7272727 L24.9473684,82.7272727 L24.9473684,24.8181818 L70.6842105,24.8181818 L70.6842105,82.7272727 Z" id="Shape"></path>
        </g>
    </g>
</svg>