<?xml version="1.0" encoding="UTF-8"?>
<svg width="205px" height="47px" viewBox="0 0 205 47" version="1.1" xmlns="http://www.w3.org/2000/svg" xmlns:xlink="http://www.w3.org/1999/xlink">
    <!-- Generator: Sketch 50.2 (55047) - http://www.bohemiancoding.com/sketch -->
    <title>Logo</title>
    <desc>Created with Sketch.</desc>
    <defs></defs>
    <g id="Login" stroke="none" stroke-width="1" fill="none" fill-rule="evenodd">
        <g id="Desktop-HD" transform="translate(-178.000000, -423.000000)" fill="#FFFFFF">
            <g id="Logo" transform="translate(159.000000, 420.000000)">
                <g transform="translate(15.000000, 0.000000)">
                    <g id="Text-Draw" transform="translate(29.036304, 3.857143)">
                        <path d="M18.6914298,13.0249707 C19.2605536,13.0391283 19.8266299,12.9374409 20.3554266,12.7260578 C20.7883365,12.5478808 21.1802628,12.2827418 21.5070584,11.9469763 C21.806511,11.6345239 22.0339339,11.2600308 22.1732916,10.8499024 C22.3127127,10.440418 22.3834671,10.0106053 22.3826792,9.57793258 C22.3933781,9.15278799 22.3054079,8.73096337 22.1257035,8.34571184 C21.96643,8.01335587 21.727777,7.72554108 21.4309174,7.50780174 C21.121036,7.2858115 20.7723793,7.1240206 20.4030147,7.03081306 C19.9927133,6.92435336 19.570514,6.87092127 19.1466891,6.87181684 C18.533397,6.85526814 17.9240292,6.97471079 17.3621358,7.22160853 C16.9283533,7.41555676 16.5394483,7.69762782 16.2200217,8.04997886 C15.720876,8.61810586 15.4348135,9.34279803 15.4110242,10.0994402 C15.4110242,10.9845192 15.6754024,11.6936424 16.204159,12.2268097 C16.7329155,12.759977 17.5620058,13.0260307 18.6914298,13.0249707 Z" id="Shape" fill-rule="nonzero"></path>
                        <path d="M63.2576751,26.9291906 C62.6548927,27.2567228 62.0685016,27.5556357 61.4985021,27.8259293 L59.8535405,28.6066008 C59.3416296,28.8486227 58.8485087,29.1287084 58.3783097,29.4445109 C58.3783097,28.6219704 58.4132077,27.8057898 58.4830035,26.995969 C58.5576612,26.3612433 58.544851,25.7192404 58.444933,25.0880143 C58.3497569,24.6258653 58.2503506,24.217775 58.1467144,23.8637434 C58.0430781,23.5097118 57.9426143,23.1758197 57.8453231,22.8620672 C57.747778,22.546041 57.669901,22.2242497 57.6121415,21.89855 C57.5513067,21.5387687 57.522113,21.1743272 57.5248967,20.8094259 C57.6300567,20.568108 57.7815071,20.3498574 57.9706384,20.1670812 C58.2307866,19.877708 58.5067976,19.5597156 58.7986712,19.2131038 C59.0852091,18.8701391 59.3501027,18.5095762 59.591806,18.1335194 C59.8074925,17.8350529 59.9330342,17.4807311 59.9534755,17.1127637 C59.9514659,16.9288021 59.9387542,16.7451146 59.915405,16.5626367 C59.8850193,16.339177 59.7926888,16.1287463 59.6489117,15.9552712 C59.4532712,15.732666 59.204354,15.5635992 58.9255727,15.4639728 C58.4725559,15.3098452 57.9949235,15.2413761 57.5169653,15.2620476 C57.1771194,15.2558307 56.8388365,15.3096514 56.5176154,15.4210438 C56.2274969,15.5262184 55.9523301,15.6689327 55.6991003,15.8455638 C55.4537667,16.0172042 55.2272538,16.2143987 55.0233494,16.4338498 C54.8250047,16.6463745 54.6406109,16.8715612 54.4713276,17.1079938 C53.6591576,18.1361694 52.9997982,18.994219 52.4932494,19.6821427 C51.9867006,20.3700663 51.5552353,20.9530525 51.1988534,21.4311011 L50.2756444,22.6649119 C50.0154962,23.0115236 49.6633444,23.458303 49.2191889,24.00525 C48.8089374,24.5128598 48.3636907,24.9910204 47.8867224,25.4362161 L47.6170565,25.6842502 C47.6170565,25.6429111 47.2646401,25.9823645 47.0697935,26.1771385 C46.7948401,26.4219926 46.4902763,26.6869864 46.1561022,26.9721196 C46.0503509,27.0622174 45.898069,27.1841145 45.6992565,27.3378109 C45.5628374,27.4411584 45.4280044,27.5572257 45.2915852,27.6828327 C44.9616412,27.9276869 44.6237657,28.1598214 44.2684413,28.3935458 C43.7989055,28.6935187 43.3388873,28.9616923 42.8883868,29.1980667 C42.4794348,29.4164752 42.0553346,29.6051077 41.619371,29.7625033 C41.2937334,29.8881178 40.9496523,29.9590281 40.6009859,29.9723783 C40.4153976,29.9855305 40.2328638,29.9197347 40.0981385,29.7911226 C39.9695669,29.6441074 39.8815321,29.4659836 39.8427491,29.2743849 C39.7836251,29.0165652 39.7506744,28.7534117 39.7444003,28.4889436 C39.7338252,28.1889707 39.7285376,27.8603785 39.7285376,27.503167 C39.7445711,27.1460475 39.7896652,26.7908361 39.8633706,26.4410722 L40.1806245,24.7366327 L40.6374701,22.2737811 L41.113351,19.7298415 C41.2359554,19.0906782 41.3122954,18.4434664 41.3417739,17.7932675 C41.3639816,17.2018016 41.3756143,16.7343527 41.3766718,16.3909208 C41.3777293,16.047489 41.1942508,15.7549359 40.8262362,15.5132617 C40.4592792,15.2843071 39.9633055,15.1698298 39.3383153,15.1698298 C38.8278371,15.1621331 38.3222945,15.2708712 37.859912,15.4878223 C37.4252741,15.6998172 37.1772873,15.9573911 37.1159516,16.2605439 L35.0189031,26.6525372 C34.9320276,27.1375865 34.7777142,27.608027 34.5604712,28.050114 C34.3874759,28.4284825 34.1502412,28.7738654 33.85934,29.0708698 C33.6281286,29.3369187 33.3494757,29.5574483 33.0376523,29.7211643 C32.7727579,29.8627171 32.4780456,29.9390192 32.1778942,29.943759 C31.9993905,29.9473546 31.8247498,29.891429 31.6813918,29.7847628 C31.536978,29.6747896 31.4192932,29.5334566 31.3371713,29.3713726 C31.2438393,29.1882307 31.1765623,28.9928873 31.1373013,28.7910364 C31.0920922,28.5675953 31.0697686,28.3401104 31.070678,28.1121225 C31.070678,28.0994028 31.1034609,27.9101973 31.1690267,27.544506 L31.4260024,26.11354 L31.8495364,23.7492661 L32.3254173,21.0717697 C32.469239,20.2693687 32.6125321,19.4743876 32.7552963,18.6868263 C32.8980606,17.899265 33.0265484,17.0677147 33.1407599,16.1921755 C33.1302564,15.8992648 32.9628692,15.6348339 32.7029494,15.500542 C32.4110758,15.3150464 31.9288499,15.205869 31.2562715,15.1730097 C30.8695187,15.1782902 30.4913656,15.2881549 30.1617455,15.4910022 C29.8343527,15.6980517 29.5473142,15.9631297 29.3146775,16.2732636 C29.0635018,16.6041898 28.8506351,16.9626383 28.6801696,17.3417182 C28.5083623,17.7205169 28.3589936,18.1091425 28.2328416,18.5055706 C28.1209226,18.853074 28.0308572,19.2072708 27.9631758,19.5660754 L27.8219978,20.3356172 C27.7789922,20.6712759 27.7134264,21.0125878 27.6253003,21.3595528 C26.4796736,21.888465 25.3000275,22.3399625 24.0942641,22.7110208 C23.2203173,22.9710169 22.3307337,23.174945 21.4309174,23.3215663 C20.6441277,23.4424034 19.9213175,23.5250814 19.2624868,23.5696004 C18.6036562,23.6141193 17.9162727,23.6936174 17.2003363,23.8080947 L18.2663095,20.3101778 C18.3297603,20.1193823 18.4059012,19.8649883 18.4947323,19.5469959 C18.6004836,19.203564 18.7020049,18.8410526 18.7992961,18.4594617 C18.8965873,18.0778708 18.9822459,17.7217192 19.0562718,17.3910071 C19.1134147,17.1530886 19.1484622,16.9103788 19.1609656,16.6659843 C19.1568705,16.3613374 19.0532274,16.06644 18.8659194,15.8264842 C18.669222,15.5593706 18.3487955,15.4258137 17.90464,15.4258137 C17.6148814,15.4258137 17.3219503,15.4353535 17.0258466,15.4544331 C16.737673,15.4719653 16.4521497,15.5199298 16.1740199,15.5975297 C15.9039355,15.6735219 15.6493858,15.7967869 15.422128,15.961631 C15.1761424,16.14645 14.9722739,16.3816885 14.8241044,16.6516746 C14.5814142,17.1169276 14.3843226,17.6046802 14.2355984,18.10808 C14.0367859,18.7334652 13.8406172,19.4515981 13.6470923,20.2624789 C13.4535674,21.0733596 13.2663876,22.0151473 13.0855529,23.0878418 C12.9047181,24.1605363 12.7365736,25.1638025 12.5811191,26.0976403 L12.1258597,28.8339654 C11.9778079,29.7243442 11.8292273,30.5315151 11.680118,31.2554779 C11.5310086,31.9794407 11.4157397,32.596876 11.3343112,33.1077839 C11.2631031,33.4595734 11.2180351,33.8161739 11.1994783,34.1746486 C11.1890195,35.8122403 11.2748267,37.4490273 11.456454,39.0765022 C11.580186,40.3201412 11.8588965,41.54334 12.286073,42.7175157 C12.6731228,43.7085922 13.1775565,44.4648842 13.7993742,44.9863919 C14.4360716,45.5123686 15.2414153,45.7891614 16.0661535,45.7654734 C16.9521462,45.7929086 17.8231535,45.5318349 18.5486655,45.021371 C19.2343276,44.5172831 19.8102419,43.8783533 20.2412152,43.1436256 C20.7028446,42.3607406 21.0611611,41.5211191 21.3071884,40.6457949 C21.5536204,39.7979873 21.7443811,38.93491 21.8782455,38.0621063 C21.9988019,37.2480456 22.0749429,36.5394524 22.1066683,35.9363267 C22.1383937,35.3332011 22.1542564,34.9484302 22.1542564,34.7820141 C22.1545995,33.8424704 22.0556996,32.9055305 21.8592102,31.9868605 L21.3119472,29.4238414 C21.0780734,28.5506287 20.8001184,27.6898812 20.4791556,26.8449226 C21.2638449,26.8300494 22.0461608,26.7534964 22.8189033,26.615968 C23.5930365,26.4804227 24.3584412,26.2988464 25.111063,26.072201 C25.7507514,25.8823466 26.3740724,25.6409454 26.9749298,25.3503581 C26.9061914,25.6354913 26.8363956,25.900485 26.7655422,26.1453392 C26.5254867,27.0346581 26.3985852,28.3119278 26.3848375,29.9771482 C26.3689769,30.6559896 26.4518028,31.3335294 26.6307093,31.9884505 C26.7620857,32.4656425 26.9911381,32.9101938 27.3032876,33.2938095 C27.5640122,33.6076722 27.8995633,33.8504877 28.2788434,33.9997527 C28.6545068,34.1413304 29.0529387,34.2124714 29.4542692,34.2096277 C29.9933114,34.2013659 30.5262152,34.0935669 31.0262624,33.8916353 C31.591899,33.6743984 32.1297266,33.3904476 32.6283948,33.0457754 C33.1812621,32.6604387 33.7007524,32.229093 34.1813527,31.756316 C34.7009337,31.2476817 35.1848402,30.7036798 35.6296169,30.1281946 C35.7417198,30.6608734 35.8884993,31.1856234 36.0690136,31.6990773 C36.2172735,32.1303125 36.4249712,32.5386472 36.6860725,32.9122185 C36.9133141,33.2386476 37.2102683,33.510222 37.5553482,33.7071997 C37.9319207,33.9033289 38.3526558,33.9986255 38.7767759,33.9838531 C39.2877213,33.9781438 39.7962059,33.9119669 40.2916634,33.7866978 C40.8602734,33.6477468 41.4192865,33.4719515 41.9651778,33.2604203 C42.5454292,33.0365619 43.1135656,32.7823486 43.6672451,32.4988284 C44.2319571,32.2105152 44.7649437,31.9094824 45.2662049,31.5957298 C45.7024291,31.3222563 46.1037553,31.0487828 46.4733561,30.7753093 C46.5875675,30.7609996 46.7033652,30.74351 46.8207492,30.7180706 C46.8640918,31.3142492 47.0537178,31.8904592 47.372771,32.3954808 C47.6766466,32.8574673 48.0840514,33.2418638 48.5624732,33.5179942 C49.0915131,33.8214303 49.6664319,34.0362513 50.2645405,34.1539791 C50.9534136,34.2915278 51.6544348,34.3586501 52.3568302,34.3543143 C53.4638497,34.3421231 54.5671423,34.2233908 55.6515122,33.9997527 C56.8220312,33.7702152 57.9753466,33.4599652 59.1032349,33.0712148 C60.2188031,32.6893101 61.3082525,32.2346703 62.3646053,31.7102071 C63.3222047,31.241537 65.2650565,30.0039104 66.1237656,29.3713726 L65.1698759,25.6842502 C64.5948417,26.1271947 63.8928111,26.5782952 63.2576751,26.9291906 Z M18.4534893,36.9236933 C18.4269159,37.6567761 18.3505986,38.3871964 18.2250665,39.1098914 C18.1336416,39.7017237 17.9494778,40.2753557 17.6793897,40.809561 C17.4319317,41.2674702 17.098815,41.4964247 16.6800399,41.4964247 C16.5447236,41.4804366 16.4196949,41.4160832 16.327888,41.315169 C16.1572778,41.1388567 16.0216277,40.9316706 15.9281481,40.7046235 C15.772309,40.3441997 15.6604606,39.966233 15.5950314,39.5789303 C15.4969008,39.0013103 15.4522952,38.4158292 15.4617848,37.8299718 C15.4579458,35.7535674 15.5882928,33.6790939 15.8520071,31.6195792 C16.1121553,29.6151668 16.3707173,27.6229441 16.627693,25.6429111 C16.992535,26.8226631 17.3235366,27.9700859 17.6206978,29.0851794 L17.9252615,30.5908737 L18.228239,32.0854382 C18.325181,32.5582308 18.3966665,33.0359103 18.4423854,33.5164042 C18.4857435,33.9806732 18.5068937,34.3977733 18.5058362,34.7677045 C18.5026637,35.421709 18.4852147,36.1403719 18.4534893,36.9236933 Z M53.6052244,30.3794087 C53.4076242,30.6619709 53.1425913,30.8904516 52.8342974,31.0440129 C52.4507588,31.2243167 52.0298807,31.3104324 51.6065247,31.2952269 C51.2250324,31.3018834 50.8492607,31.2016646 50.5215162,31.0058538 C50.2199904,30.8251653 49.9391302,30.6118971 49.6839659,30.3698689 C49.4428529,30.1387944 49.2313503,29.9267994 49.049458,29.733884 C48.9265703,29.573827 48.7449547,29.4696414 48.5450243,29.4445109 L53.814612,23.8923627 C53.8780628,24.0979978 53.9510312,24.3455019 54.0335172,24.6348751 C54.1211174,25.0403831 54.1340196,25.4585268 54.0715877,25.8686858 C54.015185,26.3133409 54.0087999,26.7629398 54.0525524,27.209024 C54.0964197,27.5608232 54.1186694,27.9149928 54.1191758,28.2695288 C54.1204142,28.6545638 54.0821424,29.0387056 54.0049643,29.4158916 C53.9376815,29.7607293 53.8017262,30.0884306 53.6052244,30.3794087 Z" id="Shape" fill-rule="nonzero"></path>
                        <path d="M69.1934961,24.300983 C69.2061862,23.9575512 69.2188764,23.6109394 69.2315666,23.2611477 C69.2442567,22.911356 69.2569469,22.5711041 69.269637,22.2403919 C69.3077075,21.4772101 69.352123,20.7018385 69.4028837,19.9142772 C69.7201376,19.5199665 70.0670019,19.077957 70.4434766,18.5882486 C70.8199512,18.0985403 71.1900808,17.5992921 71.5538653,17.0905042 L78.8681546,17.0905042 C79.2005108,17.0766763 79.5086201,16.9123197 79.7057049,16.6437248 C79.969491,16.3162689 80.1048744,15.9035191 80.0864097,15.4830524 C80.097505,15.1352905 80.0392624,14.788805 79.9150925,14.4638866 C79.8361929,14.2217037 79.6168803,14.0530463 79.3630707,14.0393667 C79.1515681,14.026647 78.8787297,14.0139273 78.5445556,14.0012076 L77.4817549,13.9662284 C77.1010502,13.9535087 76.7076553,13.941849 76.3015703,13.9312492 L75.1689738,13.9010399 C74.8199945,13.8904402 74.5122582,13.8724206 74.2457649,13.8469812 C74.0557546,13.8162671 73.8615103,13.8243795 73.6747078,13.8708307 C74.1315535,13.1617075 74.5661913,12.4467545 74.9786214,11.7259716 C75.3763287,11.0325482 75.7353766,10.317558 76.0541122,9.58429243 C76.3472645,8.91472871 76.5890778,8.22374398 76.7774512,7.51734151 C76.9485639,6.88806754 77.0381313,6.23932961 77.0439445,5.58712734 C77.0463979,4.87112856 76.960078,4.15759872 76.7869688,3.46293778 C76.6367218,2.83471145 76.3894534,2.23387733 76.0541122,1.68218006 C75.760289,1.19885739 75.3678284,0.783267923 74.9024805,0.462679014 C74.4626153,0.160917643 73.9412302,0.00114218916 73.4082145,0.00476988675 C72.562204,0.00476988675 71.7516202,0.382120927 70.9764632,1.13682301 C70.1114383,2.02000948 69.390392,3.03407772 68.839758,4.14185166 C68.1348696,5.51715948 67.5438487,6.94816449 67.0726536,8.42044007 C66.5402786,10.0506887 66.1059187,11.7114702 65.7719125,13.393842 C65.5406086,13.4245969 65.3069911,13.4341762 65.0739538,13.4224613 C64.7355497,13.4161015 64.3532587,13.4065617 63.9270809,13.393842 C63.5009031,13.3811223 63.0546326,13.3779424 62.5882693,13.3843022 C62.1596435,13.3883008 61.7316416,13.4180334 61.3065635,13.4733401 C60.9804466,13.5108503 60.6605392,13.5904789 60.3548017,13.7102445 C60.1062861,13.816242 59.9820283,13.9694083 59.9820283,14.1697436 C59.9820283,14.2969405 59.9883734,14.4490469 60.0010636,14.6260627 C60.0142298,14.8025571 60.0599476,14.9750718 60.1358965,15.1348506 C60.2220641,15.3050055 60.3504311,15.4500967 60.5086698,15.5561906 C60.7220559,15.6932769 60.9652944,15.7767269 61.2177324,15.7994549 C61.9072309,15.8842528 62.4359874,15.9552712 62.804002,16.0125098 C63.1720166,16.0697484 63.4718215,16.1227472 63.7034169,16.171506 C63.9392423,16.2213248 64.1629063,16.2711437 64.3744089,16.3209625 C64.5859116,16.3707813 64.8830727,16.42378 65.2658925,16.4799587 C65.1527386,17.3279386 65.064965,18.1859882 65.0025717,19.0541076 C64.9401784,19.922227 64.9089818,20.7357577 64.9089818,21.4946996 C64.8918693,23.2614377 65.011729,25.0268382 65.2674787,26.7749643 C65.4611352,28.1498797 65.8344701,29.4932716 66.3778675,30.7705394 C66.8696111,31.8707933 67.4813824,32.7129433 68.2131814,33.2969894 C68.9309977,33.8776104 69.8289134,34.1881124 70.7512129,34.1746486 C71.2855197,34.164166 71.8153053,34.0741446 72.3232061,33.9075349 C73.0019538,33.6909683 73.6641126,33.4252756 74.3044568,33.1125538 C75.044716,32.7564022 75.8907265,32.3112128 76.8424883,31.7769855 C77.79425,31.2427582 91.7697998,20.6255203 92.9901699,19.9142772 L93.2580123,15.1348506 C93.1915824,15.2080063 92.9510088,15.1763569 92.3115105,15.4830524 C91.7217136,15.7659117 90.7700528,16.3582432 89.8185947,17.0898891 C85.6429349,20.3008599 79.1358076,25.990695 78.8316704,26.2502767 C78.3621346,26.6509472 77.8698622,27.0325381 77.3548533,27.3950495 C76.8398445,27.7575609 76.319548,28.091453 75.793964,28.3967258 C75.2652075,28.7019985 74.7639463,28.9669922 74.2901804,29.1917069 C73.8640322,29.3946156 73.4253182,29.5698724 72.9767492,29.7163944 C72.6549236,29.8293452 72.318116,29.8936483 71.9773993,29.9071899 C71.5718888,29.9146662 71.1685082,29.8467405 70.7876971,29.7068547 C70.4388747,29.5744489 70.1320383,29.3503762 69.8993861,29.0581501 C69.6364285,28.7163663 69.4478403,28.3231462 69.345778,27.9038375 C69.2075256,27.3363454 69.1435375,26.7532332 69.1554256,26.1691886 C69.1554256,25.902075 69.1585982,25.6095219 69.1649432,25.2915295 C69.1712883,24.973537 69.1808059,24.6433549 69.1934961,24.300983 Z M70.1452579,10.3538342 C70.4191538,9.26841993 70.7120849,8.27416354 71.0240512,7.37106498 C71.2776768,6.5998526 71.6037973,5.85452447 71.9980208,5.14511784 C72.3353675,4.56425163 72.6695416,4.27381852 73.0005432,4.27381852 C73.2005244,4.2638753 73.3982692,4.31970773 73.5636689,4.43281475 C73.6948214,4.53045897 73.7972927,4.6617298 73.8603013,4.81281573 C73.9237998,4.96516116 73.9654563,5.12575145 73.9840304,5.2898044 C74.0020575,5.44444897 74.0115895,5.59996992 74.0125832,5.75566334 C73.989605,6.28445689 73.8825045,6.80617713 73.6953293,7.30110665 C73.4838267,7.92967172 73.2099308,8.60487569 72.8736416,9.32671855 C72.5373525,10.0485614 72.1672229,10.783124 71.7632529,11.5304062 C71.3497653,12.2776885 70.9516116,12.971442 70.5687919,13.6116668 C70.3646918,13.5925873 70.1674656,13.5761577 69.9771133,13.562378 C69.7867609,13.5485983 69.5958798,13.5321687 69.4044699,13.5130891 C69.6202026,12.4891535 69.8650169,11.4344785 70.1389128,10.3490643 L70.1452579,10.3538342 Z" id="Shape" fill-rule="nonzero"></path>
                        <path d="M112.360652,27.3473507 C111.902147,27.3573861 111.454126,27.2091951 111.091636,26.9276006 C110.752811,26.6650271 110.451753,26.3568481 110.19698,26.0117824 C109.90865,25.6001269 109.678074,25.1507412 109.511711,24.6762141 C109.676683,24.3455019 109.867036,23.9893504 110.082768,23.6077595 C110.260431,23.2770473 110.498371,22.7682594 110.79659,22.0813957 C111.094808,21.394532 111.38351,20.7972362 111.662693,20.2895083 L111.872081,19.879298 C111.998982,19.6312639 112.132229,19.332351 112.271821,18.9825593 C112.411412,18.6327676 112.541486,18.2543566 112.662043,17.8473262 C112.776987,17.4764504 112.837894,17.0908802 112.842878,16.7025534 C112.842878,16.2319246 112.6208,15.8471537 112.176644,15.5482408 C111.732489,15.2493279 111.150857,15.0998715 110.431748,15.0998715 C109.804798,15.0835439 109.183721,15.2245545 108.624987,15.5100817 C108.11738,15.7835552 107.787436,16.0983678 107.635154,16.4545193 L102.896967,27.4029994 L102.611438,27.418899 L104.369025,16.3511718 C104.377409,15.9990463 104.209515,15.6660565 103.921697,15.4639728 C103.623478,15.2413781 103.195186,15.1300808 102.636819,15.1300808 C102.052044,15.1164419 101.47082,15.2247275 100.929993,15.4480732 C100.439464,15.6683294 100.001026,15.9902016 99.643528,16.3925108 C99.2221135,16.8731627 98.8663165,17.4078333 98.5854861,17.982473 C98.2618871,18.6184579 97.9250692,19.3604403 97.5750324,20.2084202 C97.2249955,21.0564 96.8115079,22.1471141 96.3345695,23.4805625 C95.8576311,24.8097709 95.3389209,26.1230797 94.778439,27.4204889 L94.5309809,27.4363886 L96.0696625,16.3464019 C96.0739324,15.9884185 95.8902041,15.6545225 95.5858502,15.4671528 C95.2685963,15.246678 94.8054056,15.1364406 94.196278,15.1364406 L93.7013619,15.0982815 C93.2425291,15.0854248 92.7894151,15.2028253 92.3942757,15.4369435 C92.0283007,15.6630664 91.7059093,15.9533555 91.442514,16.2939331 C91.1718062,16.6452308 90.9503187,17.0319976 90.7842121,17.4434758 C90.6214366,17.8391438 90.4842057,18.2448908 90.3733682,18.658207 C90.3337115,18.8060735 90.3035724,18.911011 90.2797783,18.9761994 C90.2702607,19.9047374 90.2655019,20.8332753 90.2655019,21.7618133 L90.2655019,25.5125342 C90.2655019,28.3744663 90.4902234,30.535755 90.9396665,31.9964003 C91.3891096,33.4570456 92.0934133,34.1878983 93.0525776,34.1889582 C93.6331523,34.1889582 94.2264172,33.9568237 94.8323722,33.4925548 C95.517862,32.9414378 96.1121169,32.2851625 96.5931315,31.5480309 C97.2188666,30.6091257 97.7547601,29.6130992 98.1936775,28.5732116 C98.7209568,27.3394295 99.1547083,26.067567 99.4912461,24.7684319 L100.044854,24.8638296 C100.044854,25.5506933 100.051199,26.2561066 100.063889,26.9800694 C100.07658,27.7040322 100.098787,28.4094455 100.130513,29.0963091 C100.162238,29.7831728 100.206654,30.4345274 100.263759,31.0503728 C100.320865,31.6662181 100.393834,32.2068053 100.482665,32.6721342 C100.545314,33.0559812 100.657284,33.4300821 100.815781,33.7851078 C100.949028,34.0585813 101.104482,34.1953181 101.282145,34.1953181 C101.830085,34.1821362 102.361117,34.0024959 102.804963,33.6801703 C103.373299,33.2794049 103.879947,32.7972901 104.308747,32.2492043 C104.853045,31.5648317 105.337086,30.8344208 105.755425,30.0661861 C106.25463,29.1594716 106.705758,28.2269875 107.106927,27.2726224 C107.099636,27.965061 107.239132,28.6511577 107.516184,29.2855147 C107.754813,29.8119328 108.113414,30.2748424 108.563122,30.6369826 C109.014326,30.9911323 109.532309,31.2501863 110.085941,31.3985745 C110.685661,31.5536203 111.303601,31.6263625 111.922841,31.6148093 C112.805064,31.6039661 113.678165,31.4343249 114.500529,31.1139712 C115.415386,30.7691019 116.286877,30.3182014 117.097253,29.7704531 L117.739628,24.8638296 C117.143191,25.27086 115.919183,25.941824 115.352356,26.2598165 C114.855362,26.5465553 114.339113,26.7983743 113.80733,27.0134586 C113.3508,27.216331 112.859725,27.3296707 112.360652,27.3473507 Z" id="Shape" fill-rule="nonzero"></path>
                        <path d="M141.011854,13.0249707 C141.581509,13.0393442 142.148147,12.9376529 142.677437,12.7260578 C143.110347,12.5478808 143.502273,12.2827418 143.829069,11.9469763 C144.128521,11.6345239 144.355944,11.2600308 144.495302,10.8499024 C144.634723,10.440418 144.705477,10.0106053 144.704689,9.57793258 C144.715388,9.15278799 144.627418,8.73096337 144.447714,8.34571184 C144.28844,8.01335587 144.049787,7.72554108 143.752928,7.50780174 C143.443027,7.28584411 143.094377,7.12405618 142.725025,7.03081306 C142.314724,6.92435336 141.892524,6.87092127 141.468699,6.87181684 C140.858481,6.85219967 140.25142,6.96727236 139.690491,7.20888883 C139.256709,7.40283706 138.867804,7.68490812 138.548377,8.03725917 C138.049231,8.60538616 137.763169,9.33007833 137.739379,10.0867205 C137.739379,10.9717995 138.003758,11.6809227 138.532514,12.21409 C139.061271,12.7472573 139.887717,13.0175509 141.011854,13.0249707 Z" id="Shape" fill-rule="nonzero"></path>
                        <path d="M143.123179,28.8816642 C142.58884,29.3086598 142.023042,29.6945315 141.430629,30.0359768 C140.972968,30.3235728 140.448983,30.4878704 139.909396,30.5129655 C139.564187,30.544431 139.242099,30.3357672 139.128952,30.0073575 C138.986642,29.5677757 138.922219,29.1066137 138.938599,28.6447599 C138.948433,27.98616 139.040085,27.3313532 139.211438,26.6954662 C139.394387,25.9810431 139.545612,25.2613202 139.665111,24.5362974 C139.826638,23.6482183 140.050326,22.7726356 140.334517,21.9160396 C140.661288,20.888924 140.908217,20.048894 141.075305,19.3959495 L141.521046,17.646991 C141.63183,17.2605594 141.697308,16.8625042 141.716157,16.4608792 C141.731272,16.1690765 141.630299,15.8831781 141.435388,15.665898 C141.248208,15.4687427 140.892884,15.3701651 140.369415,15.3701651 C140.045772,15.3742826 139.723296,15.4099599 139.406549,15.4766925 C139.052786,15.5470498 138.708002,15.6569124 138.378646,15.8042247 C138.055375,15.9475554 137.755822,16.1395009 137.490335,16.3734312 C137.224034,16.5961019 137.039754,16.9017097 136.966866,17.2415506 C136.853712,17.6994598 136.556551,18.6878863 136.075383,20.2068302 C135.836385,21.0643499 135.6344,21.7814228 135.469428,22.3580491 C135.080792,22.6521922 134.68581,22.9240757 134.28607,23.1721098 C133.752579,23.5036636 133.192866,23.7908187 132.612556,24.0306894 C132.054135,24.2743876 131.452865,24.4041103 130.843865,24.4122804 C130.644682,24.413079 130.44733,24.3741652 130.263291,24.2978031 C130.067438,24.21237 129.896949,24.0776331 129.768375,23.9066724 C129.604927,23.6868117 129.485356,23.4373954 129.416223,23.1721098 C129.318899,22.7985888 129.274051,22.4132826 129.282976,22.027337 C129.28917,21.6915007 129.320988,21.3566314 129.378152,21.0256608 C129.441603,20.6249903 129.543124,20.1130224 129.682716,19.4897572 C129.822308,18.866492 129.923829,18.360884 129.98728,17.9729333 C130.041824,17.6736874 130.07364,17.3707253 130.082456,17.0666548 C130.084658,16.8068905 130.030534,16.5497473 129.923829,16.3130127 C129.828199,16.0987639 129.688775,15.9070158 129.514571,15.750166 C129.339061,15.5951574 129.135512,15.4753349 128.914962,15.3971944 C128.689191,15.3150597 128.45084,15.2730898 128.210658,15.2731774 C127.551953,15.261599 126.906386,15.4585575 126.365826,15.836024 C125.822369,16.2214613 125.340922,16.6879436 124.938184,17.2192912 C124.463973,17.8620721 124.06181,18.5552318 123.738964,19.2862421 C123.358259,20.1130224 123.041005,20.7802766 122.787202,21.2880045 L122.577814,21.2880045 C122.554772,20.5312365 122.573837,19.7737693 122.63492,19.0191284 C122.698371,18.1552489 122.730096,17.4879948 122.730096,17.0173659 C122.730096,16.6230553 122.720579,16.3114227 122.701543,16.0824681 C122.697074,15.8963968 122.642245,15.7150399 122.542916,15.5577806 C122.442191,15.4300787 122.294974,15.3477198 122.133659,15.328826 C121.878368,15.2922975 121.620566,15.2763467 121.362732,15.2811272 C121.117583,15.2779858 120.87256,15.2939333 120.629875,15.328826 C120.452372,15.3530858 120.282933,15.4184061 120.134959,15.5196215 C119.992569,15.6249806 119.872804,15.7580016 119.782807,15.9107522 C119.659548,16.1227272 119.55753,16.3464128 119.478243,16.5785364 C119.280699,17.1021063 119.115416,17.6373408 118.983327,18.1812183 C118.818355,18.8299229 118.621658,19.6402737 118.393235,20.6122706 C118.164812,21.5842675 117.980276,22.4958459 117.839627,23.3470057 C117.69369,24.2055853 117.566789,25.0477353 117.458922,25.8734557 C117.351056,26.6991761 117.265397,27.4840874 117.201947,28.2281898 C117.138496,28.9701721 117.10677,29.6215267 117.10677,30.1822534 C117.105857,30.6764134 117.134461,31.170185 117.192429,31.6609183 C117.240386,32.1001061 117.355969,32.5291896 117.535063,32.9328881 C117.859555,33.7322021 118.658908,34.2328003 119.5179,34.1746486 C119.735728,34.1782378 119.951885,34.1359891 120.152408,34.0506315 C120.36214,33.9529202 120.545047,33.8055986 120.685395,33.6213417 C120.876168,33.3752534 121.038973,33.1086126 121.170793,32.8263606 C121.36086,32.4255261 121.529249,32.0147207 121.675227,31.5957298 L125.080948,22.0798057 L125.387098,22.0798057 C125.492849,22.8811467 125.626096,23.6724179 125.786838,24.4536194 C125.936287,25.1924852 126.192808,25.9054524 126.548247,26.5698591 C126.878405,27.1859804 127.355844,27.7104202 127.937819,28.0962229 C128.521567,28.4841737 129.288792,28.6781491 130.239497,28.6781491 C130.771959,28.6783431 131.301397,28.5979384 131.809904,28.4396547 C132.319751,28.2824629 132.816247,28.0846779 133.294652,27.8481888 C133.677472,27.6584533 134.041785,27.458648 134.387592,27.248773 L134.340004,27.5333763 C134.172952,28.4608642 134.081703,29.4004712 134.067165,30.3428395 C134.062027,30.8730166 134.122772,31.4017719 134.248,31.9169022 C134.352201,32.3616171 134.557396,32.776227 134.84761,33.1284534 C135.144007,33.4717684 135.519802,33.737075 135.942136,33.9011751 C136.472606,34.0981223 137.035917,34.1909665 137.601374,34.1746486 C138.394318,34.1648852 139.180749,34.0296627 139.931604,33.7739781 C140.758394,33.5030432 141.562938,33.1681438 142.337975,32.7723019 C143.100293,32.385829 143.834445,31.9459063 144.534959,31.4558131 C145.130479,31.044456 147.22541,29.1626047 147.76343,28.6781491 L147.061881,25.3265397 C146.638876,25.6699715 145.331795,26.997559 144.790348,27.4809075 C144.248901,27.964256 143.693178,28.4311749 143.123179,28.8816642 Z" id="Shape" fill-rule="nonzero"></path>
                        <path d="M177.342764,25.630276 C176.542837,25.8121827 176.04046,26.319761 175.408422,26.7829141 C174.686046,27.3192534 173.94115,27.8974228 173.156022,28.3363072 C172.36794,28.7768545 171.543792,29.1491963 170.692545,29.4492808 C169.921586,29.7342125 169.107802,29.8853039 168.286174,29.8960602 C168.058269,29.8975269 167.830967,29.8724494 167.608837,29.8213319 C167.394911,29.769889 167.1915,29.681665 167.00764,29.5605781 C166.794668,29.4163268 166.604794,29.2404851 166.444515,29.0390705 C166.233257,28.7758513 166.044861,28.4949932 165.881389,28.1995704 C166.955843,27.9138053 167.99025,27.4939516 168.960338,26.9498601 C169.855107,26.454259 170.678961,25.8397439 171.409539,25.1229935 C172.127869,24.3960098 172.735093,23.5666336 173.211541,22.6617319 C173.72655,21.7077546 173.984054,20.8438751 173.984054,20.0700935 C173.994086,19.3967197 173.864445,18.7285998 173.60335,18.10808 C173.360887,17.5404561 173.000771,17.0310009 172.546894,16.6135155 C172.08411,16.1964423 171.545556,15.8725576 170.960624,15.6595382 C170.326227,15.4264163 169.655034,15.3100712 168.979374,15.3161063 C168.163071,15.3044727 167.353121,15.4614276 166.599969,15.7771954 C165.892305,16.0811019 165.239928,16.5007345 164.669479,17.0189559 C164.087911,17.5490113 163.581901,18.1567807 163.165695,18.825153 C162.738178,19.5055558 162.379995,20.2273186 162.09655,20.9795519 C161.812079,21.732134 161.537654,22.5949535 161.273276,23.5680104 C161.038325,24.3668161 160.90508,25.1921916 160.876708,26.0245021 C160.79105,26.1008203 160.706978,26.1834983 160.618146,26.2518667 C160.148611,26.6525372 159.656867,27.0341281 159.142916,27.3966395 C158.628964,27.7591509 158.108668,28.093043 157.582026,28.3983157 C157.05327,28.7035885 156.552009,28.9685822 156.078243,29.1932968 C155.652094,29.3962056 155.21338,29.5714624 154.764811,29.7179844 C154.44298,29.8309123 154.106176,29.8952148 153.765462,29.9087799 C153.364736,29.9144946 152.966355,29.846596 152.590036,29.7084446 C152.241213,29.5760388 151.934377,29.3519662 151.701725,29.05974 C151.438807,28.7179314 151.250223,28.3247203 151.148117,27.9054274 C151.009864,27.3379354 150.945876,26.7548232 150.957764,26.1707786 C150.957764,25.903665 150.960937,25.6111119 150.967282,25.2931194 C150.973627,24.975127 150.983145,24.6444149 150.995835,24.300983 C151.008525,23.9575512 151.021215,23.6109394 151.033905,23.2611477 C151.046595,22.911356 151.059286,22.5711041 151.071976,22.2403919 C151.110046,21.4772101 151.154462,20.7018385 151.205222,19.9142772 C151.522476,19.5199665 151.869341,19.077957 152.245815,18.5882486 C152.62229,18.0985403 152.99242,17.5992921 153.356204,17.0905042 L160.670493,17.0905042 C161.002849,17.0766763 161.310959,16.9123197 161.508044,16.6437248 C161.77183,16.3162689 161.907213,15.9035191 161.888748,15.4830524 C161.899844,15.1352905 161.841601,14.788805 161.717431,14.4638866 C161.638532,14.2217037 161.419219,14.0530463 161.165409,14.0393667 C160.953907,14.026647 160.681068,14.0139273 160.346894,14.0012076 L159.280921,13.9630485 C158.900216,13.9503288 158.506822,13.938669 158.100737,13.9280693 L156.96814,13.89786 C156.619161,13.8872603 156.311424,13.8692407 156.044931,13.8438013 C155.854921,13.8130872 155.660676,13.8211995 155.473874,13.8676507 C155.93072,13.1585276 156.365358,12.4435745 156.777788,11.7227917 C157.175317,11.0314537 157.534363,10.3185902 157.853278,9.58747236 C158.146465,8.91792222 158.388279,8.22693482 158.576617,7.52052144 C158.747765,6.89125456 158.837333,6.24251212 158.843111,5.59030727 C158.845531,4.87431041 158.759212,4.16078462 158.586135,3.4661177 C158.435888,2.83789137 158.18862,2.23705725 157.853278,1.68535998 C157.559493,1.20200803 157.167026,0.786411198 156.701647,0.465858939 C156.261782,0.164097567 155.740396,0.00432211366 155.207381,0.00794981124 C154.36137,0.00794981124 153.550786,0.385300852 152.775629,1.14000293 C151.910685,2.0232574 151.189649,3.03731212 150.638924,4.14503158 C149.934068,5.52035446 149.343048,6.95135674 148.87182,8.42361999 C148.339445,10.0538686 147.905085,11.7146502 147.571079,13.3970219 C147.339775,13.4277768 147.106157,13.4373561 146.87312,13.4256412 C146.534716,13.4192814 146.152425,13.4097416 145.726247,13.3970219 C145.300069,13.3843022 144.853799,13.3811223 144.387436,13.3874821 C143.95881,13.3914769 143.530807,13.4212095 143.10573,13.47652 C142.779613,13.5140303 142.459705,13.5936589 142.153968,13.7134244 C141.905452,13.8194219 141.781195,13.9725882 141.781195,14.1729235 C141.781195,14.3001205 141.78754,14.4522269 141.80023,14.6292426 C141.813396,14.805737 141.859114,14.9782517 141.935063,15.1380306 C142.018125,15.3082214 142.143157,15.4543413 142.298318,15.5625505 C142.511704,15.6996368 142.754943,15.7830867 143.007381,15.8058147 C143.696879,15.8906127 144.225636,15.961631 144.593651,16.0188697 C144.961665,16.0761083 145.26147,16.129107 145.493065,16.1778659 C145.728891,16.2276847 145.952555,16.2775035 146.164058,16.3273223 C146.37556,16.3771411 146.672721,16.4301399 147.055541,16.4863186 C146.942387,17.3342984 146.854614,18.192348 146.79222,19.0604674 C146.729827,19.9285868 146.69863,20.7421175 146.69863,21.5010595 C146.685112,23.2686169 146.808684,25.0345537 147.068231,26.7829141 C147.261888,28.1578295 147.635223,29.5012214 148.17862,30.7784892 C148.670364,31.8787431 149.282135,32.7208931 150.013934,33.3049392 C150.73175,33.8855602 151.629666,34.1960622 152.551965,34.1825984 C153.086272,34.1721158 153.616058,34.0820945 154.123959,33.9154847 C154.802708,33.6989233 155.464867,33.4332306 156.105209,33.1205036 C156.845468,32.7643521 157.691479,32.3191626 158.643241,31.7849353 C159.530494,31.2878071 160.535132,30.7127708 161.657153,30.0598263 C161.915827,30.6660564 162.254042,31.2349827 162.662848,31.7515461 C163.262323,32.5015161 164.020957,33.1082067 164.883625,33.5275339 C165.855062,33.9857297 166.919367,34.2116045 167.992714,34.1873683 C168.752379,34.1875968 169.509447,34.0984796 170.248389,33.9218446 C170.983436,33.7470241 171.702452,33.5103399 172.397785,33.2143114 C173.080034,32.924252 173.741032,32.5863423 174.375863,32.2030954 C175.004026,31.8236244 175.590417,31.4372636 176.135036,31.0440129 C177.417325,30.1040008 179.033007,29.0390705 179.693039,27.881578 C179.974085,27.3887101 179.440891,26.4396456 179.033007,26.0245021 C178.618674,25.6027955 178.433483,25.3822419 177.342764,25.630276 Z M151.934906,10.3490643 C152.208802,9.26365005 152.501733,8.26939365 152.8137,7.3662951 C153.067325,6.59508271 153.393446,5.84975458 153.787669,5.14034795 C154.125016,4.55948174 154.45919,4.26904864 154.790192,4.26904864 C155.163149,4.23483219 155.513715,4.4520148 155.64995,4.80168599 C155.713448,4.95403143 155.755105,5.11462172 155.773679,5.27867466 C155.791744,5.4333158 155.801277,5.58883888 155.802232,5.7445336 C155.779254,6.27332716 155.672153,6.79504739 155.484978,7.28997691 C155.273475,7.91854198 154.999579,8.59374595 154.66329,9.31558881 C154.327001,10.0374317 153.956871,10.7719942 153.552901,11.5192765 C153.139414,12.2665587 152.74126,12.9603123 152.35844,13.6005371 C152.15434,13.5814575 151.957114,13.5650279 151.766762,13.5512482 C151.57641,13.5374686 151.385528,13.521039 151.194119,13.5019594 C151.414081,12.4854435 151.661011,11.4344785 151.934906,10.3490643 Z M165.47689,24.1022377 C165.530138,23.5980893 165.649063,23.1031076 165.830628,22.6299327 C166.042131,22.0331669 166.226667,21.5328587 166.384237,21.1290083 C166.537316,20.7372279 166.751485,20.3722936 167.018744,20.047834 C167.600726,19.336901 168.481361,18.9402809 169.398149,18.9761994 C169.70377,18.9761994 169.961803,19.1563952 170.172248,19.5167866 C170.398497,19.9403759 170.508008,20.4167582 170.489502,20.8968738 C170.489502,21.2943644 170.266896,21.7978524 169.821683,22.407338 C169.435892,22.9533789 168.976233,23.4430048 168.455905,23.8621534 C167.993256,24.2213165 167.486202,24.5189891 166.947362,24.7477624 C166.475787,24.9622472 165.966024,25.0795763 165.448337,25.0927842 C165.441992,24.8182507 165.45151,24.4880686 165.47689,24.1022377 Z" id="Shape" fill-rule="nonzero"></path>
                        <path d="M1.87421359,34.3636364 C0.549368545,34.1597753 0.102149082,33.4681793 0.102149082,32.5951514 C0.102149082,31.7221236 0.12996663,31.4963084 0.606061778,31.1166821 C1.08215693,30.7370558 1.9385882,30.9924516 2.60155605,31.1166821 C3.26452391,31.2409126 6.27841056,32.0493948 9.08409396,30.6114486 C10.9545496,29.6528178 12.0477076,28.6818547 12.3635682,27.6985593 L11.6777924,33.0199371 C8.08983231,34.3693242 4.82197271,34.817224 1.87421359,34.3636364 Z" id="Path-4"></path>
                    </g>
                    <g id="content-icon" transform="translate(4.198020, 11.571429)">
                        <path d="M2.90915407,0 C1.30911933,0 0,1.3053719 0,2.90082645 C0,10.5559235 0,17.3245185 0,23.2066116 C0.197549884,24.5855023 2.70655265,24.6207618 2.90915407,23.2066116 C2.90915407,17.4247367 2.90915407,10.6561416 2.90915407,2.90082645 C8.49572531,2.90082645 14.3140335,2.90082645 20.3640785,2.90082645 C21.4979583,2.71238744 21.338055,3.6633919e-15 20.3640785,0 C14.7122668,0 8.89395869,0 2.90915407,0 Z M24.7278096,5.80165289 L8.72746222,5.80165289 C7.12742748,5.80165289 5.81830815,7.10702479 5.81830815,8.70247934 L5.81830815,29.0082645 C5.81830815,30.603719 7.12742748,31.9090909 8.72746222,31.9090909 L24.7278096,31.9090909 C26.3278444,31.9090909 27.6369637,30.603719 27.6369637,29.0082645 L27.6369637,8.70247934 C27.6369637,7.10702479 26.3278444,5.80165289 24.7278096,5.80165289 Z M24.7278096,29.0082645 L8.72746222,29.0082645 L8.72746222,8.70247934 L24.7278096,8.70247934 L24.7278096,29.0082645 Z" id="Shape" fill-rule="nonzero"></path>
                    </g>
                </g>
            </g>
        </g>
    </g>
</svg>